ffmpeg started on 2025-06-04 at 20:36:25
Report written to "D:\Convert\FFMetrics\reports\ssim_report-6.txt"
Log level: 32
Command line:
ffmpeg -hide_banner -nostdin -i "G:\\\xc0\xed\xe8\xec\xe5\\\xce\xed\xe3\xee\xe8\xed\xe3\xe8\\!_36_\xce\xf1\xe5\xed\xfc_2024\\DreamCast\\\xc4\xe5\xf2\xf1\xea\xe0\xff \xc4\xe5\xeb\xe8\xea\xee\\[DC] Delicos Nursery - 03_Telegram_HEVC.mkv" -i "G:\\\xc0\xed\xe8\xec\xe5\\\xce\xed\xe3\xee\xe8\xed\xe3\xe8\\!_36_\xce\xf1\xe5\xed\xfc_2024\\DreamCast\\\xc4\xe5\xf2\xf1\xea\xe0\xff \xc4\xe5\xeb\xe8\xea\xee\\[DC] Delicos Nursery - 03_Telegram.mp4" -lavfi "[0:v]settb=AVTB,setpts=PTS-STARTPTS,format=pix_fmts=yuv420p10,fps=24000/1001,scale=1920:1080:flags=bicubic[main];[1:v]settb=AVTB,setpts=PTS-STARTPTS,format=pix_fmts=yuv420p,fps=24000/1001,scale=1920:1080:flags=bicubic[ref];[main][ref]ssim=eof_action=endall:stats_file='D\\:/Convert/FFMetrics/logs/ssim_logfile-6.txt'" -f null -
Input #0, matroska,webm, from 'G:\Аниме\Онгоинги\!_36_Осень_2024\DreamCast\Детская Делико\[DC] Delicos Nursery - 03_Telegram_HEVC.mkv':
  Metadata:
    COMPATIBLE_BRANDS: isomiso2avc1mp41
    MAJOR_BRAND     : isom
    MINOR_VERSION   : 512
    ENCODER         : Lavf61.7.100
  Duration: 00:23:46.65, start: -0.021000, bitrate: 1572 kb/s
  Stream #0:0: Video: hevc (Main 10), yuv420p10le(tv, bt709, progressive), 1920x1080 [SAR 1:1 DAR 16:9], 23.98 fps, 23.98 tbr, 1k tbn (default)
      Metadata:
        HANDLER_NAME    : VideoHandler
        VENDOR_ID       : [0][0][0][0]
        ENCODER         : Lavc61.19.100 libx265
        BPS             : 1375985
        DURATION        : 00:23:46.549708333
        NUMBER_OF_FRAMES: 34203
        NUMBER_OF_BYTES : 245363790
        _STATISTICS_WRITING_APP: mkvpropedit v66.0.0 ('Josie') 64-bit
        _STATISTICS_WRITING_DATE_UTC: 2025-05-30 12:02:57
        _STATISTICS_TAGS: BPS DURATION NUMBER_OF_FRAMES NUMBER_OF_BYTES
  Stream #0:1: Audio: aac (LC), 48000 Hz, stereo, fltp (default)
      Metadata:
        HANDLER_NAME    : SoundHandler
        VENDOR_ID       : [0][0][0][0]
        ENCODER         : Lavc61.19.100 aac
        BPS             : 192581
        DURATION        : 00:23:46.645000000
        NUMBER_OF_FRAMES: 66875
        NUMBER_OF_BYTES : 34343237
        _STATISTICS_WRITING_APP: mkvpropedit v66.0.0 ('Josie') 64-bit
        _STATISTICS_WRITING_DATE_UTC: 2025-05-30 12:02:57
        _STATISTICS_TAGS: BPS DURATION NUMBER_OF_FRAMES NUMBER_OF_BYTES
Input #1, mov,mp4,m4a,3gp,3g2,mj2, from 'G:\Аниме\Онгоинги\!_36_Осень_2024\DreamCast\Детская Делико\[DC] Delicos Nursery - 03_Telegram.mp4':
  Metadata:
    major_brand     : isom
    minor_version   : 512
    compatible_brands: isomiso2avc1mp41
    encoder         : Lavf60.16.100
  Duration: 00:23:46.62, start: 0.000000, bitrate: 3885 kb/s
  Stream #1:0[0x1](und): Video: h264 (High) (avc1 / 0x31637661), yuv420p(tv, bt709, progressive), 1920x1080 [SAR 1:1 DAR 16:9], 3737 kb/s, 23.98 fps, 23.98 tbr, 24k tbn (default)
      Metadata:
        handler_name    : VideoHandler
        vendor_id       : [0][0][0][0]
        encoder         : Lavc60.31.102 h264_qsv
  Stream #1:1[0x2](und): Audio: aac (HE-AACv2) (mp4a / 0x6134706D), 48000 Hz, stereo, fltp, 144 kb/s (default)
      Metadata:
        handler_name    : SoundHandler
        vendor_id       : [0][0][0][0]
Stream mapping:
  Stream #0:0 (hevc) -> settb:default
  Stream #1:0 (h264) -> settb:default
  ssim:default -> Stream #0:0 (wrapped_avframe)
  Stream #0:1 -> #0:1 (aac (native) -> pcm_s16le (native))
Output #0, null, to 'pipe:':
  Metadata:
    COMPATIBLE_BRANDS: isomiso2avc1mp41
    MAJOR_BRAND     : isom
    MINOR_VERSION   : 512
    encoder         : Lavf61.7.100
  Stream #0:0: Video: wrapped_avframe, yuv420p10le(tv, bt709, progressive), 1920x1080 [SAR 1:1 DAR 16:9], q=2-31, 200 kb/s, 23.98 fps, 23.98 tbn
      Metadata:
        encoder         : Lavc61.19.100 wrapped_avframe
  Stream #0:1: Audio: pcm_s16le, 48000 Hz, stereo, s16, 1536 kb/s (default)
      Metadata:
        HANDLER_NAME    : SoundHandler
        VENDOR_ID       : [0][0][0][0]
        _STATISTICS_TAGS: BPS DURATION NUMBER_OF_FRAMES NUMBER_OF_BYTES
        BPS             : 192581
        DURATION        : 00:23:46.645000000
        NUMBER_OF_FRAMES: 66875
        NUMBER_OF_BYTES : 34343237
        _STATISTICS_WRITING_APP: mkvpropedit v66.0.0 ('Josie') 64-bit
        _STATISTICS_WRITING_DATE_UTC: 2025-05-30 12:02:57
        encoder         : Lavc61.19.100 pcm_s16le
frame=  164 fps=0.0 q=-0.0 size=N/A time=00:00:06.84 bitrate=N/A speed=13.1x    frame=  372 fps=362 q=-0.0 size=N/A time=00:00:15.51 bitrate=N/A speed=15.1x    frame=  574 fps=371 q=-0.0 size=N/A time=00:00:23.94 bitrate=N/A speed=15.5x    frame=  795 fps=386 q=-0.0 size=N/A time=00:00:33.15 bitrate=N/A speed=16.1x    frame= 1050 fps=406 q=-0.0 size=N/A time=00:00:43.79 bitrate=N/A speed=  17x    frame= 1301 fps=421 q=-0.0 size=N/A time=00:00:54.26 bitrate=N/A speed=17.5x    frame= 1526 fps=422 q=-0.0 size=N/A time=00:01:03.64 bitrate=N/A speed=17.6x    frame= 1708 fps=414 q=-0.0 size=N/A time=00:01:11.23 bitrate=N/A speed=17.3x    frame= 1899 fps=408 q=-0.0 size=N/A time=00:01:19.20 bitrate=N/A speed=  17x    frame= 2073 fps=402 q=-0.0 size=N/A time=00:01:26.46 bitrate=N/A speed=16.8x    frame= 2326 fps=410 q=-0.0 size=N/A time=00:01:37.01 bitrate=N/A speed=17.1x    frame= 2487 fps=402 q=-0.0 size=N/A time=00:01:43.72 bitrate=N/A speed=16.8x    frame= 2700 fps=403 q=-0.0 size=N/A time=00:01:52.61 bitrate=N/A speed=16.8x    frame= 2904 fps=402 q=-0.0 size=N/A time=00:02:01.12 bitrate=N/A speed=16.8x    frame= 3122 fps=403 q=-0.0 size=N/A time=00:02:10.21 bitrate=N/A speed=16.8x    frame= 3318 fps=402 q=-0.0 size=N/A time=00:02:18.38 bitrate=N/A speed=16.8x    frame= 3496 fps=398 q=-0.0 size=N/A time=00:02:25.81 bitrate=N/A speed=16.6x    frame= 3688 fps=397 q=-0.0 size=N/A time=00:02:33.82 bitrate=N/A speed=16.5x    frame= 3891 fps=396 q=-0.0 size=N/A time=00:02:42.28 bitrate=N/A speed=16.5x    frame= 4078 fps=395 q=-0.0 size=N/A time=00:02:50.08 bitrate=N/A speed=16.5x    frame= 4283 fps=395 q=-0.0 size=N/A time=00:02:58.63 bitrate=N/A speed=16.5x    frame= 4489 fps=395 q=-0.0 size=N/A time=00:03:07.22 bitrate=N/A speed=16.5x    frame= 4680 fps=394 q=-0.0 size=N/A time=00:03:15.19 bitrate=N/A speed=16.4x    frame= 4919 fps=397 q=-0.0 size=N/A time=00:03:25.16 bitrate=N/A speed=16.6x    frame= 5170 fps=401 q=-0.0 size=N/A time=00:03:35.63 bitrate=N/A speed=16.7x    frame= 5414 fps=403 q=-0.0 size=N/A time=00:03:45.80 bitrate=N/A speed=16.8x    frame= 5670 fps=407 q=-0.0 size=N/A time=00:03:56.48 bitrate=N/A speed=  17x    frame= 5910 fps=409 q=-0.0 size=N/A time=00:04:06.49 bitrate=N/A speed=17.1x    frame= 6155 fps=411 q=-0.0 size=N/A time=00:04:16.71 bitrate=N/A speed=17.1x    frame= 6389 fps=412 q=-0.0 size=N/A time=00:04:26.47 bitrate=N/A speed=17.2x    frame= 6631 fps=415 q=-0.0 size=N/A time=00:04:36.56 bitrate=N/A speed=17.3x    frame= 6892 fps=417 q=-0.0 size=N/A time=00:04:47.45 bitrate=N/A speed=17.4x    frame= 7122 fps=418 q=-0.0 size=N/A time=00:04:57.04 bitrate=N/A speed=17.4x    frame= 7375 fps=420 q=-0.0 size=N/A time=00:05:07.59 bitrate=N/A speed=17.5x    frame= 7622 fps=422 q=-0.0 size=N/A time=00:05:17.90 bitrate=N/A speed=17.6x    frame= 7879 fps=424 q=-0.0 size=N/A time=00:05:28.61 bitrate=N/A speed=17.7x    frame= 8113 fps=425 q=-0.0 size=N/A time=00:05:38.37 bitrate=N/A speed=17.7x    frame= 8355 fps=426 q=-0.0 size=N/A time=00:05:48.47 bitrate=N/A speed=17.8x    frame= 8571 fps=426 q=-0.0 size=N/A time=00:05:57.48 bitrate=N/A speed=17.8x    frame= 8792 fps=426 q=-0.0 size=N/A time=00:06:06.69 bitrate=N/A speed=17.8x    frame= 8949 fps=423 q=-0.0 size=N/A time=00:06:13.24 bitrate=N/A speed=17.6x    frame= 9128 fps=421 q=-0.0 size=N/A time=00:06:20.71 bitrate=N/A speed=17.6x    frame= 9373 fps=422 q=-0.0 size=N/A time=00:06:30.93 bitrate=N/A speed=17.6x    frame= 9603 fps=423 q=-0.0 size=N/A time=00:06:40.52 bitrate=N/A speed=17.6x    frame= 9828 fps=423 q=-0.0 size=N/A time=00:06:49.90 bitrate=N/A speed=17.6x    frame=10046 fps=423 q=-0.0 size=N/A time=00:06:59.00 bitrate=N/A speed=17.6x    frame=10282 fps=424 q=-0.0 size=N/A time=00:07:08.84 bitrate=N/A speed=17.7x    frame=10475 fps=423 q=-0.0 size=N/A time=00:07:16.89 bitrate=N/A speed=17.6x    frame=10678 fps=422 q=-0.0 size=N/A time=00:07:25.36 bitrate=N/A speed=17.6x    frame=10824 fps=419 q=-0.0 size=N/A time=00:07:31.45 bitrate=N/A speed=17.5x    frame=11015 fps=418 q=-0.0 size=N/A time=00:07:39.41 bitrate=N/A speed=17.4x    frame=11218 fps=418 q=-0.0 size=N/A time=00:07:47.88 bitrate=N/A speed=17.4x    frame=11448 fps=418 q=-0.0 size=N/A time=00:07:57.47 bitrate=N/A speed=17.4x    frame=11678 fps=419 q=-0.0 size=N/A time=00:08:07.06 bitrate=N/A speed=17.5x    frame=11891 fps=419 q=-0.0 size=N/A time=00:08:15.95 bitrate=N/A speed=17.5x    frame=12069 fps=417 q=-0.0 size=N/A time=00:08:23.37 bitrate=N/A speed=17.4x    frame=12261 fps=417 q=-0.0 size=N/A time=00:08:31.38 bitrate=N/A speed=17.4x    frame=12425 fps=415 q=-0.0 size=N/A time=00:08:38.22 bitrate=N/A speed=17.3x    frame=12641 fps=415 q=-0.0 size=N/A time=00:08:47.23 bitrate=N/A speed=17.3x    frame=12874 fps=416 q=-0.0 size=N/A time=00:08:56.95 bitrate=N/A speed=17.3x    frame=13116 fps=416 q=-0.0 size=N/A time=00:09:07.04 bitrate=N/A speed=17.4x    frame=13289 fps=415 q=-0.0 size=N/A time=00:09:14.26 bitrate=N/A speed=17.3x    frame=13483 fps=414 q=-0.0 size=N/A time=00:09:22.35 bitrate=N/A speed=17.3x    frame=13691 fps=414 q=-0.0 size=N/A time=00:09:31.02 bitrate=N/A speed=17.3x    frame=13925 fps=415 q=-0.0 size=N/A time=00:09:40.78 bitrate=N/A speed=17.3x    frame=14149 fps=415 q=-0.0 size=N/A time=00:09:50.13 bitrate=N/A speed=17.3x    frame=14373 fps=416 q=-0.0 size=N/A time=00:09:59.47 bitrate=N/A speed=17.3x    frame=14607 fps=416 q=-0.0 size=N/A time=00:10:09.23 bitrate=N/A speed=17.3x    frame=14842 fps=417 q=-0.0 size=N/A time=00:10:19.03 bitrate=N/A speed=17.4x    frame=15097 fps=418 q=-0.0 size=N/A time=00:10:29.67 bitrate=N/A speed=17.4x    frame=15345 fps=419 q=-0.0 size=N/A time=00:10:40.01 bitrate=N/A speed=17.5x    frame=15587 fps=419 q=-0.0 size=N/A time=00:10:50.10 bitrate=N/A speed=17.5x    frame=15811 fps=419 q=-0.0 size=N/A time=00:10:59.45 bitrate=N/A speed=17.5x    frame=16053 fps=420 q=-0.0 size=N/A time=00:11:09.54 bitrate=N/A speed=17.5x    frame=16308 fps=421 q=-0.0 size=N/A time=00:11:20.17 bitrate=N/A speed=17.6x    frame=16495 fps=420 q=-0.0 size=N/A time=00:11:27.97 bitrate=N/A speed=17.5x    frame=16693 fps=420 q=-0.0 size=N/A time=00:11:36.23 bitrate=N/A speed=17.5x    frame=16928 fps=420 q=-0.0 size=N/A time=00:11:46.03 bitrate=N/A speed=17.5x    frame=17153 fps=421 q=-0.0 size=N/A time=00:11:55.42 bitrate=N/A speed=17.5x    frame=17315 fps=419 q=-0.0 size=N/A time=00:12:02.17 bitrate=N/A speed=17.5x    frame=17491 fps=418 q=-0.0 size=N/A time=00:12:09.52 bitrate=N/A speed=17.4x    frame=17690 fps=418 q=-0.0 size=N/A time=00:12:17.82 bitrate=N/A speed=17.4x    frame=17932 fps=419 q=-0.0 size=N/A time=00:12:27.91 bitrate=N/A speed=17.5x    frame=18133 fps=418 q=-0.0 size=N/A time=00:12:36.29 bitrate=N/A speed=17.4x    frame=18378 fps=419 q=-0.0 size=N/A time=00:12:46.51 bitrate=N/A speed=17.5x    frame=18609 fps=419 q=-0.0 size=N/A time=00:12:56.15 bitrate=N/A speed=17.5x    frame=18850 fps=420 q=-0.0 size=N/A time=00:13:06.20 bitrate=N/A speed=17.5x    frame=19067 fps=420 q=-0.0 size=N/A time=00:13:15.25 bitrate=N/A speed=17.5x    frame=19278 fps=420 q=-0.0 size=N/A time=00:13:24.05 bitrate=N/A speed=17.5x    frame=19464 fps=419 q=-0.0 size=N/A time=00:13:31.81 bitrate=N/A speed=17.5x    frame=19652 fps=418 q=-0.0 size=N/A time=00:13:39.65 bitrate=N/A speed=17.5x    frame=19852 fps=418 q=-0.0 size=N/A time=00:13:47.99 bitrate=N/A speed=17.4x    frame=20102 fps=419 q=-0.0 size=N/A time=00:13:58.42 bitrate=N/A speed=17.5x    frame=20340 fps=419 q=-0.0 size=N/A time=00:14:08.34 bitrate=N/A speed=17.5x    frame=20602 fps=420 q=-0.0 size=N/A time=00:14:19.27 bitrate=N/A speed=17.5x    frame=20864 fps=421 q=-0.0 size=N/A time=00:14:30.20 bitrate=N/A speed=17.6x    frame=21124 fps=422 q=-0.0 size=N/A time=00:14:41.04 bitrate=N/A speed=17.6x    frame=21384 fps=423 q=-0.0 size=N/A time=00:14:51.89 bitrate=N/A speed=17.6x    frame=21654 fps=424 q=-0.0 size=N/A time=00:15:03.15 bitrate=N/A speed=17.7x    frame=21918 fps=425 q=-0.0 size=N/A time=00:15:14.16 bitrate=N/A speed=17.7x    frame=22161 fps=425 q=-0.0 size=N/A time=00:15:24.29 bitrate=N/A speed=17.7x    frame=22412 fps=426 q=-0.0 size=N/A time=00:15:34.76 bitrate=N/A speed=17.8x    frame=22661 fps=426 q=-0.0 size=N/A time=00:15:45.15 bitrate=N/A speed=17.8x    frame=22859 fps=426 q=-0.0 size=N/A time=00:15:53.41 bitrate=N/A speed=17.8x    frame=23085 fps=426 q=-0.0 size=N/A time=00:16:02.83 bitrate=N/A speed=17.8x    frame=23330 fps=426 q=-0.0 size=N/A time=00:16:13.05 bitrate=N/A speed=17.8x    frame=23584 fps=427 q=-0.0 size=N/A time=00:16:23.64 bitrate=N/A speed=17.8x    frame=23828 fps=427 q=-0.0 size=N/A time=00:16:33.82 bitrate=N/A speed=17.8x    frame=24074 fps=428 q=-0.0 size=N/A time=00:16:44.08 bitrate=N/A speed=17.9x    frame=24296 fps=428 q=-0.0 size=N/A time=00:16:53.34 bitrate=N/A speed=17.8x    frame=24490 fps=428 q=-0.0 size=N/A time=00:17:01.43 bitrate=N/A speed=17.8x    frame=24721 fps=428 q=-0.0 size=N/A time=00:17:11.07 bitrate=N/A speed=17.8x    frame=24966 fps=428 q=-0.0 size=N/A time=00:17:21.29 bitrate=N/A speed=17.9x    frame=25192 fps=428 q=-0.0 size=N/A time=00:17:30.71 bitrate=N/A speed=17.9x    frame=25418 fps=428 q=-0.0 size=N/A time=00:17:40.14 bitrate=N/A speed=17.9x    frame=25622 fps=428 q=-0.0 size=N/A time=00:17:48.65 bitrate=N/A speed=17.9x    frame=25860 fps=428 q=-0.0 size=N/A time=00:17:58.57 bitrate=N/A speed=17.9x    frame=26137 fps=429 q=-0.0 size=N/A time=00:18:10.13 bitrate=N/A speed=17.9x    frame=26376 fps=429 q=-0.0 size=N/A time=00:18:20.09 bitrate=N/A speed=17.9x    frame=26612 fps=430 q=-0.0 size=N/A time=00:18:29.94 bitrate=N/A speed=17.9x    frame=26837 fps=430 q=-0.0 size=N/A time=00:18:39.32 bitrate=N/A speed=17.9x    frame=27042 fps=430 q=-0.0 size=N/A time=00:18:47.87 bitrate=N/A speed=17.9x    frame=27283 fps=430 q=-0.0 size=N/A time=00:18:57.92 bitrate=N/A speed=17.9x    frame=27512 fps=430 q=-0.0 size=N/A time=00:19:07.47 bitrate=N/A speed=17.9x    frame=27757 fps=430 q=-0.0 size=N/A time=00:19:17.69 bitrate=N/A speed=17.9x    frame=28001 fps=431 q=-0.0 size=N/A time=00:19:27.87 bitrate=N/A speed=  18x    frame=28252 fps=431 q=-0.0 size=N/A time=00:19:38.34 bitrate=N/A speed=  18x    frame=28479 fps=431 q=-0.0 size=N/A time=00:19:47.81 bitrate=N/A speed=  18x    frame=28734 fps=432 q=-0.0 size=N/A time=00:19:58.44 bitrate=N/A speed=  18x    frame=28987 fps=432 q=-0.0 size=N/A time=00:20:08.99 bitrate=N/A speed=  18x    frame=29192 fps=432 q=-0.0 size=N/A time=00:20:17.54 bitrate=N/A speed=  18x    frame=29404 fps=432 q=-0.0 size=N/A time=00:20:26.39 bitrate=N/A speed=  18x    frame=29676 fps=432 q=-0.0 size=N/A time=00:20:37.73 bitrate=N/A speed=  18x    frame=29921 fps=433 q=-0.0 size=N/A time=00:20:47.95 bitrate=N/A speed=  18x    frame=30151 fps=433 q=-0.0 size=N/A time=00:20:57.54 bitrate=N/A speed=18.1x    frame=30390 fps=433 q=-0.0 size=N/A time=00:21:07.51 bitrate=N/A speed=18.1x    frame=30560 fps=432 q=-0.0 size=N/A time=00:21:14.60 bitrate=N/A speed=  18x    frame=30797 fps=432 q=-0.0 size=N/A time=00:21:24.49 bitrate=N/A speed=  18x    frame=31059 fps=433 q=-0.0 size=N/A time=00:21:35.41 bitrate=N/A speed=18.1x    frame=31315 fps=433 q=-0.0 size=N/A time=00:21:46.09 bitrate=N/A speed=18.1x    frame=31473 fps=433 q=-0.0 size=N/A time=00:21:52.68 bitrate=N/A speed=  18x    frame=31751 fps=433 q=-0.0 size=N/A time=00:22:04.28 bitrate=N/A speed=18.1x    frame=31914 fps=433 q=-0.0 size=N/A time=00:22:11.07 bitrate=N/A speed=  18x    frame=32079 fps=432 q=-0.0 size=N/A time=00:22:17.96 bitrate=N/A speed=  18x    frame=32231 fps=431 q=-0.0 size=N/A time=00:22:24.30 bitrate=N/A speed=  18x    frame=32372 fps=430 q=-0.0 size=N/A time=00:22:30.18 bitrate=N/A speed=17.9x    frame=32527 fps=429 q=-0.0 size=N/A time=00:22:36.64 bitrate=N/A speed=17.9x    frame=32685 fps=428 q=-0.0 size=N/A time=00:22:43.23 bitrate=N/A speed=17.9x    frame=32862 fps=427 q=-0.0 size=N/A time=00:22:50.61 bitrate=N/A speed=17.8x    frame=33050 fps=427 q=-0.0 size=N/A time=00:22:58.46 bitrate=N/A speed=17.8x    frame=33234 fps=427 q=-0.0 size=N/A time=00:23:06.13 bitrate=N/A speed=17.8x    frame=33396 fps=426 q=-0.0 size=N/A time=00:23:12.89 bitrate=N/A speed=17.8x    frame=33571 fps=425 q=-0.0 size=N/A time=00:23:20.19 bitrate=N/A speed=17.7x    frame=33771 fps=425 q=-0.0 size=N/A time=00:23:28.53 bitrate=N/A speed=17.7x    frame=33988 fps=425 q=-0.0 size=N/A time=00:23:37.58 bitrate=N/A speed=17.7x    [Parsed_ssim_10 @ 0000019272dc24c0] SSIM Y:0.993057 (21.584623) U:0.992783 (21.416566) V:0.992558 (21.283279) All:0.992928 (21.504795)
[out#0/null @ 0000019272dd0100] video:14697KiB audio:267500KiB subtitle:0KiB other streams:0KiB global headers:0KiB muxing overhead: unknown
frame=34203 fps=425 q=-0.0 Lsize=N/A time=00:23:46.55 bitrate=N/A speed=17.7x    
